<?xml version="1.0" encoding="UTF-8"?>
<svg version="1.1" xmlns="http://www.w3.org/2000/svg" width="1400" height="1400">
<path d="M0 0 C462 0 924 0 1400 0 C1400 462 1400 924 1400 1400 C938 1400 476 1400 0 1400 C0 938 0 476 0 0 Z " fill="#FEFEFE" transform="translate(0,0)"/>
<path d="M0 0 C27.39 0 54.78 0 83 0 C83 74.25 83 148.5 83 225 C151.79627026 224.68322142 151.79627026 224.68322142 220.59204102 224.27929688 C233.89050293 224.24316406 233.89050293 224.24316406 240.11387634 224.2364502 C244.46556652 224.22898925 248.81647791 224.19898197 253.16795349 224.15539551 C258.71824075 224.10053727 264.26739498 224.08406672 269.81792819 224.09542179 C271.85510817 224.09304736 273.89232757 224.07717147 275.92927468 224.04627895 C291.07619819 223.82722629 291.07619819 223.82722629 295.43135643 226.48218536 C297.22841063 228.54018961 298.56068033 230.68016849 300 233 C301.52905512 234.64358311 303.10149959 236.24739826 304.70495605 237.81848145 C305.57112045 238.68457535 306.43728485 239.55066925 307.32969666 240.44300842 C308.25665848 241.36480392 309.1836203 242.28659943 310.13867188 243.23632812 C311.14333624 244.23906898 312.14776997 245.24204096 313.1519928 246.245224 C315.30033676 248.39042771 317.450219 250.53407304 319.60133362 252.67649841 C323.00910461 256.0706464 326.41296818 259.46869537 329.81628418 262.86730957 C337.04121904 270.08118563 344.27038284 277.29081692 351.5 284.5 C359.30735566 292.28528864 367.11396091 300.0713211 374.9156785 307.86226034 C378.29259828 311.23422569 381.67193416 314.60374436 385.05319977 317.97135162 C387.16270927 320.0733538 389.27010174 322.17746892 391.37695122 324.28213692 C392.80635671 325.7088057 394.23828052 327.13294997 395.67030334 328.55699158 C399.33756601 332.22395577 402.95825829 335.88060234 406.32667542 339.82568359 C411.52204317 345.86953378 417.27122459 351.40193963 422.91186523 357.02539062 C424.21358881 358.32683172 425.51509141 359.62849385 426.81639099 360.93035889 C430.33015833 364.44441182 433.84698895 367.95538423 437.36439776 371.4657917 C441.04706299 375.14218372 444.72687546 378.82142893 448.40699768 382.50036621 C455.3675382 389.45780509 462.33062276 396.41269202 469.29463583 403.36665487 C477.22649657 411.28731819 485.15550044 419.21083876 493.08427131 427.13459492 C509.38634811 443.42623375 525.69199081 459.71429968 542 476 C540.41319642 479.90426999 537.7425239 482.52938594 534.79536438 485.43841553 C534.25956558 485.97521761 533.72376678 486.5120197 533.17173165 487.06508851 C531.37481547 488.8629574 529.57084846 490.65357999 527.7668457 492.44433594 C526.47699566 493.73198469 525.18759311 495.02008182 523.89860535 496.30859375 C521.12085257 499.08341189 518.3399704 501.8550418 515.5566349 504.62425995 C511.15145459 509.00717059 506.75337613 513.39716124 502.35624695 517.78814697 C495.39502968 524.73797693 488.42915936 531.68312156 481.46125239 538.62624383 C468.99862677 551.04460597 456.54147425 563.46845195 444.08962888 575.8976233 C439.72208461 580.25678401 435.35174725 584.61311908 430.97910941 588.96717024 C428.2512483 591.68434114 425.52545562 594.40358018 422.80015755 597.12332153 C421.54136393 598.37866258 420.28170034 599.63313201 419.0210762 600.88663483 C413.41969351 606.45708709 407.87810364 612.01579984 402.74600124 618.02857399 C398.89481864 622.37697957 394.70295777 626.40822462 390.58251953 630.49926758 C389.54840722 631.52981617 388.51453438 632.56060512 387.48088074 633.59161377 C385.27027205 635.79571597 383.0581625 637.99829639 380.84488297 640.19971657 C377.34592097 643.68027585 373.85140449 647.16527581 370.3576355 650.65104675 C360.42773299 660.55687499 350.49183287 670.45667488 340.55175781 680.35229492 C335.0501224 685.82940338 329.55207049 691.31008371 324.05785644 696.79463691 C320.58409681 700.26185161 317.10587793 703.72451046 313.6243012 707.18387473 C311.46543076 709.33103843 309.31073091 711.48234908 307.15720558 713.63487244 C306.15636813 714.63355805 305.15380349 715.63051612 304.14941597 716.62563133 C302.78147407 717.98142772 301.42022453 719.34396663 300.05935669 720.7068634 C299.29506411 721.46801358 298.53077152 722.22916376 297.74331856 723.0133791 C295.79167246 724.97823958 295.79167246 724.97823958 295 728 C254.08 728 213.16 728 171 728 C171 700.28 171 672.56 171 644 C184.2825 645.0725 197.565 646.145 211.25 647.25 C238.55864997 648.13720774 259.36026371 646.74279821 280.10289383 627.90685654 C284.99974569 623.30254036 289.57945656 618.44261137 294.0625 613.4375 C294.69039932 612.73716141 295.31829865 612.03682281 295.96522522 611.31526184 C303.15744918 603.2259844 309.97285916 594.88737026 316.47254944 586.23313904 C322.26275995 578.69845482 328.86929231 572.00805291 335.62304688 565.34277344 C336.57176286 564.40254517 337.52021098 563.46204655 338.46841431 562.52130127 C340.49417725 560.51212789 342.52133412 558.50437554 344.54948425 556.497612 C347.75517361 553.32475875 350.95472304 550.14576204 354.1529541 546.96539307 C355.25115173 545.87345473 356.34934967 544.78151672 357.44754791 543.68957901 C358.27167663 542.87012448 358.27167663 542.87012448 359.11245441 542.03411531 C366.54864486 534.64085938 373.9894476 527.25233469 381.44433594 519.87792969 C386.48935912 514.88727781 391.52552662 509.88787572 396.55161715 504.87815499 C399.20809826 502.23105971 401.86900703 499.5887744 404.5408783 496.95720673 C407.51142646 494.03135598 410.46242855 491.08653518 413.41210938 488.13964844 C414.30237823 487.268927 415.19264709 486.39820557 416.1098938 485.50109863 C416.9061618 484.69940247 417.70242981 483.8977063 418.52282715 483.07171631 C419.22259422 482.37785702 419.9223613 481.68399773 420.64333344 480.9691124 C422.2256051 479.10913779 422.2256051 479.10913779 421.85843658 476.90274429 C420.49800046 473.88730656 418.25431014 472.01909686 415.875 469.75 C412.6801116 466.68786319 409.64324845 463.63279473 406.76489258 460.27148438 C403.23441659 456.21632662 399.52312767 452.39452569 395.70703125 448.609375 C394.66897842 447.57351257 394.66897842 447.57351257 393.60995483 446.51672363 C392.12100346 445.03155022 390.63089898 443.54753208 389.13973999 442.0645752 C386.77409364 439.71180265 384.41168172 437.35582412 382.05004883 434.99902344 C377.03617606 429.99652596 372.018384 424.99797137 367 420 C361.18037992 414.20405163 355.36241688 408.40645992 349.54867554 402.60461426 C347.23152763 400.29390529 344.91136741 397.98625109 342.59106445 395.67871094 C341.15821656 394.24949865 339.7255106 392.82014404 338.29296875 391.390625 C337.65587982 390.75870239 337.01879089 390.12677979 336.36239624 389.47570801 C332.64758502 385.76132941 329.15418914 381.91793012 325.71940422 377.94427109 C323.01692137 374.88835253 320.13888482 372.02355885 317.23852539 369.15673828 C316.60352112 368.52480057 315.96851685 367.89286285 315.31427002 367.24177551 C313.95133159 365.88592868 312.5872638 364.53121631 311.22215462 363.17755508 C309.06389658 361.03682703 306.90932179 358.89245352 304.75572205 356.74703979 C298.6378854 350.65355179 292.51427365 344.56589079 286.38647461 338.48242188 C282.6265348 334.74917874 278.87141088 331.01114818 275.11926079 327.27007675 C273.68933002 325.84636789 272.25750295 324.42456107 270.82377815 323.004673 C268.82990293 321.02989598 266.84215491 319.04914433 264.85571289 317.06689453 C263.96051186 316.18483589 263.96051186 316.18483589 263.04722595 315.28495789 C259 311.22789917 259 311.22789917 259 309 C200.92 309 142.84 309 83 309 C83 520.86 83 732.72 83 951 C55.61 951 28.22 951 0 951 C0 877.08 0 803.16 0 727 C-69.73847003 727.27715457 -69.73847003 727.27715457 -139.4765625 727.63061523 C-152.9609375 727.66223145 -152.9609375 727.66223145 -159.27246094 727.66810608 C-163.68319313 727.67463102 -168.0933363 727.70087491 -172.50390625 727.73902893 C-178.13115767 727.78706272 -183.75755328 727.80143515 -189.38499069 727.79150593 C-191.4494137 727.79358196 -193.51386677 727.807453 -195.57811356 727.83450592 C-212.94852765 728.05156562 -212.94852765 728.05156562 -218.14990234 723.61048889 C-219.76791382 721.75355625 -219.76791382 721.75355625 -221 720 C-221.680625 719.154375 -222.36125 718.30875 -223.0625 717.4375 C-223.701875 716.633125 -224.34125 715.82875 -225 715 C-226.72110397 713.44102901 -228.49206095 711.95437776 -230.2734375 710.46484375 C-234.4019605 706.96213759 -237.92688999 702.99715524 -241.375 698.84375 C-243.4789484 696.45657778 -245.74535121 694.24321903 -248 692 C-249.15338144 690.84721392 -250.30644068 689.69410541 -251.4592514 688.5407486 C-252.42575111 687.57424889 -252.42575111 687.57424889 -253.41177607 686.58822393 C-310.10284583 629.89715417 -366.79391559 573.20608441 -429.34460163 510.65454388 C-430.40092517 509.5987656 -431.45829293 508.54403035 -432.51702404 507.49066639 C-434.78421825 505.23350925 -436.95602525 502.9620605 -439 500.5 C-442.69657182 496.14667684 -446.66272756 492.27436049 -451 488.5625 C-454.41652257 485.61655507 -457.16746872 482.49900923 -460 479 C-460.66 478.67 -461.32 478.34 -462 478 C-461.43784565 474.13478326 -459.74780913 472.37534438 -457.02225494 469.65590477 C-456.16048189 468.78877527 -455.29870883 467.92164576 -454.41082144 467.02823961 C-453.44381285 466.07048136 -452.47666721 465.11286146 -451.50939941 464.15536499 C-450.48978069 463.13515436 -449.47082261 462.1142831 -448.45247126 461.09280741 C-445.6471818 458.28273925 -442.83260673 455.48213378 -440.01647496 452.68293715 C-436.98306948 449.66451374 -433.95831947 446.63743928 -430.93254089 443.6113739 C-425.68699896 438.36767149 -420.43604053 433.12944394 -415.18144226 427.89481735 C-407.58254996 420.32470388 -399.99240533 412.7458689 -392.40448004 405.16476448 C-380.09187699 392.86361193 -367.77295335 380.56880987 -355.44970703 368.27832031 C-343.48102217 356.34140927 -331.5140609 344.40277671 -319.55029297 332.4609375 C-318.81333319 331.72533129 -318.07637341 330.98972509 -317.31708151 330.23182778 C-309.27680415 322.20618216 -301.23722479 314.17983785 -293.1984787 306.15265846 C-292.49258695 305.4477851 -291.78669521 304.74291174 -291.05941281 304.01667858 C-288.23808026 301.19939741 -285.41675529 298.38210865 -282.59551996 295.56473012 C-274.32444117 287.30499343 -266.05117474 279.04746221 -257.77398908 270.79384507 C-252.58452386 265.61905484 -247.3966541 260.44266915 -242.21004975 255.26501153 C-239.2138314 252.27412824 -236.2167458 249.28412622 -233.21747398 246.2963047 C-230.4754873 243.56478114 -227.73576199 240.83101111 -224.99785823 238.09539528 C-224.00347011 237.10267634 -223.00821735 236.11082265 -222.01204616 235.119893 C-220.66498887 233.7796977 -219.32126585 232.43615349 -217.97774506 231.09241295 C-217.22833948 230.34501331 -216.4789339 229.59761367 -215.70681906 228.82756555 C-213.9320152 227.10040712 -213.9320152 227.10040712 -213 225 C-196.98006463 224.97667084 -180.96013474 224.95902074 -164.9401865 224.94818783 C-157.5023549 224.94302491 -150.06453383 224.93598229 -142.62670898 224.92456055 C-136.14618658 224.91461359 -129.66567181 224.90814654 -123.18514198 224.90591151 C-119.75169458 224.90460442 -116.318269 224.9015187 -112.88482857 224.89426994 C-109.05806179 224.88625584 -105.23131665 224.88600887 -101.40454102 224.88647461 C-99.68472267 224.8810817 -99.68472267 224.8810817 -97.93016052 224.87557983 C-96.3756871 224.87764183 -96.3756871 224.87764183 -94.78981018 224.87974548 C-93.88368768 224.87882369 -92.97756517 224.8779019 -92.04398441 224.87695217 C-90 225 -90 225 -89 226 C-88.90490441 228.61688441 -88.87444 231.207289 -88.88647461 233.82446289 C-88.88632858 234.64390884 -88.88618256 235.4633548 -88.8860321 236.30763245 C-88.88673148 239.02933353 -88.89452499 241.75096705 -88.90234375 244.47265625 C-88.90420784 246.35452741 -88.90563179 248.23639906 -88.90663147 250.11827087 C-88.91045733 255.08148529 -88.92028819 260.04467064 -88.93133545 265.00787354 C-88.9415481 270.06839606 -88.94612878 275.12892327 -88.95117188 280.18945312 C-88.9619104 290.12631488 -88.97898764 300.06315503 -89 310 C-90.10167511 310.00364563 -91.20335022 310.00729126 -92.33840942 310.01104736 C-102.72631489 310.04800645 -113.11392417 310.10578927 -123.50160408 310.18390274 C-128.84190211 310.2233931 -134.18203486 310.25557403 -139.52246094 310.27099609 C-144.67737215 310.28615226 -149.83182901 310.32057969 -154.98653793 310.36830902 C-156.95204593 310.38313348 -158.9176188 310.39104162 -160.88318253 310.39188385 C-163.63892164 310.39425203 -166.39340364 310.42131959 -169.14892578 310.45410156 C-169.95956985 310.4490712 -170.77021393 310.44404083 -171.60542297 310.43885803 C-172.36253067 310.45277084 -173.11963837 310.46668365 -173.89968872 310.48101807 C-174.55047457 310.48470524 -175.20126041 310.48839241 -175.87176704 310.49219131 C-182.13929799 311.98766043 -186.31498283 317.21424668 -190.4380188 321.80989075 C-197.73757467 329.78250403 -205.32048667 337.42855632 -212.99169922 345.04174805 C-214.43242425 346.47562003 -215.87288663 347.90975596 -217.31311035 349.34413147 C-220.38035517 352.39818958 -223.44904765 355.45078259 -226.51882553 358.50229454 C-231.37159917 363.32695513 -236.21872224 368.15726633 -241.06472778 372.98872375 C-242.7307263 374.64958092 -244.39673244 376.31043044 -246.06274605 377.97127247 C-246.89596012 378.80190098 -247.7291742 379.6325295 -248.58763719 380.48832858 C-259.84887203 391.71361076 -271.11504872 402.93390131 -282.39111328 414.14428711 C-290.03166054 421.74042183 -297.66513321 429.34358858 -305.29057324 436.9548896 C-309.3181172 440.97435397 -313.34931344 444.99000174 -317.38930893 448.99695396 C-321.17522718 452.7519457 -324.95188606 456.51599869 -328.72149658 460.28735924 C-330.10802267 461.67117939 -331.49800503 463.0515461 -332.89160538 464.42824173 C-334.78754528 466.30216473 -336.67088348 468.18789548 -338.55148315 470.07719421 C-339.11001193 470.6233895 -339.6685407 471.16958479 -340.24399459 471.73233145 C-343.62971845 475.15175569 -343.62971845 475.15175569 -344 480 C-343.46375 480.226875 -342.9275 480.45375 -342.375 480.6875 C-333.68093227 485.49211637 -327.76480038 493.98940747 -321.6993866 501.61192322 C-307.44217387 519.51898377 -292.6931082 536.88422162 -277.3660841 553.88680172 C-270.37938508 561.65997973 -263.46364071 569.42783849 -257.05252075 577.68786621 C-232.89944569 608.70215037 -213.29379482 620.99845922 -178 644 C-119.26 644.33 -60.52 644.66 0 645 C0 432.15 0 219.3 0 0 Z " fill="#020202" transform="translate(663,220)"/>
<path d="M0 0 C0 37.95 0 75.9 0 115 C-11.694375 115.185625 -23.38875 115.37125 -35.4375 115.5625 C-40.95295532 115.68540405 -40.95295532 115.68540405 -46.57983398 115.81079102 C-51.10949707 115.85144043 -51.10949707 115.85144043 -53.23768616 115.85899353 C-54.70754092 115.87271281 -56.17730143 115.90415954 -57.64649963 115.95018005 C-69.94454352 116.3157598 -69.94454352 116.3157598 -74.78421021 113.21774292 C-77.10640535 110.94055879 -79.05229847 108.60173851 -81 106 C-82.15136681 104.66077248 -83.31242995 103.32980215 -84.484375 102.00854492 C-85.04576172 101.35574554 -85.60714844 100.70294617 -86.18554688 100.03036499 C-89.68122574 96.11871586 -93.48761626 92.5156331 -97.25 88.86328125 C-99.0098511 87.1355155 -100.76894431 85.4069775 -102.52734375 83.67773438 C-105.27692823 80.97778762 -108.03067091 78.2827633 -110.79736328 75.6003418 C-113.48281222 72.99326384 -116.14900558 70.36775973 -118.8125 67.73828125 C-119.6487793 66.93610672 -120.48505859 66.13393219 -121.34667969 65.30744934 C-122.1049707 64.5528392 -122.86326172 63.79822906 -123.64453125 63.02075195 C-124.65543823 62.03435478 -124.65543823 62.03435478 -125.68676758 61.0280304 C-127 59 -127 59 -126.95521545 56.59399414 C-122.88609298 45.54383808 -111.29389889 35.26597326 -103.4375 26.6875 C-102.85915154 26.05307732 -102.28080307 25.41865463 -101.68492889 24.76500702 C-70.67334842 -8.9097215 -45.54898087 -4.71196354 0 0 Z " fill="#010101" transform="translate(574,639)"/>
<path d="M0 0 C66.02051978 -5.62965673 66.02051978 -5.62965673 82.59235001 8.11382294 C87.37049723 12.28218868 91.73578311 16.75532448 95.9375 21.5 C96.61547386 22.26480431 96.61547386 22.26480431 97.30714417 23.0450592 C102.54554792 29.0099375 107.42681668 35.21169456 112.15670776 41.58569336 C115.61114696 46.11024749 119.26623403 50.43961063 123.5 54.25 C125 56 125 56 124.90393066 57.77890015 C123.59470673 60.99586934 121.50164758 62.84853402 119.03710938 65.28759766 C118.5216304 65.80190842 118.00615143 66.31621918 117.47505188 66.84611511 C115.77148367 68.54250215 114.05765476 70.22812494 112.34375 71.9140625 C111.15857752 73.09109859 109.97413889 74.26887404 108.79040527 75.44735718 C105.67361346 78.54703119 102.54836176 81.63802735 99.4208374 84.72686768 C94.41248527 89.67601906 89.4167695 94.6379183 84.42158508 99.60035324 C82.67319469 101.3347534 80.92106038 103.06530064 79.16833496 104.7953186 C78.09977209 105.85386069 77.03128642 106.91248069 75.96289062 107.97119141 C75.02658813 108.89622467 74.09028564 109.82125793 73.12561035 110.77432251 C70.97199883 112.81072487 70.97199883 112.81072487 70 115 C46.9 115 23.8 115 0 115 C0 77.05 0 39.1 0 0 Z " fill="#040404" transform="translate(834,639)"/>
<path d="M0 0 C16.01993537 -0.02332916 32.03986526 -0.04097926 48.0598135 -0.05181217 C55.4976451 -0.05697509 62.93546617 -0.06401771 70.37329102 -0.07543945 C76.85381342 -0.08538641 83.33432819 -0.09185346 89.81485802 -0.09408849 C93.24830542 -0.09539558 96.681731 -0.0984813 100.11517143 -0.10573006 C103.94193821 -0.11374416 107.76868335 -0.11399113 111.59545898 -0.11352539 C112.74200455 -0.11712067 113.88855011 -0.12071594 115.06983948 -0.12442017 C116.6243129 -0.12235817 116.6243129 -0.12235817 118.21018982 -0.12025452 C119.11631232 -0.12117631 120.02243483 -0.1220981 120.95601559 -0.12304783 C123 0 123 0 124 1 C124.09509559 3.61688441 124.12556 6.207289 124.11352539 8.82446289 C124.11367142 9.64390884 124.11381744 10.4633548 124.1139679 11.30763245 C124.11326852 14.02933353 124.10547501 16.75096705 124.09765625 19.47265625 C124.09579216 21.35452741 124.09436821 23.23639906 124.09336853 25.11827087 C124.08954267 30.08148529 124.07971181 35.04467064 124.06866455 40.00787354 C124.0584519 45.06839606 124.05387122 50.12892327 124.04882812 55.18945312 C124.0380896 65.12631488 124.02101236 75.06315503 124 85 C112.44765536 85.13058182 100.8953087 85.26098282 89.3429594 85.39115143 C83.97904549 85.45159621 78.6151323 85.51210385 73.2512207 85.57275391 C68.07709223 85.63125578 62.90296194 85.68959415 57.72883034 85.74781799 C55.75242865 85.77008715 53.77602764 85.79241574 51.7996273 85.81480408 C49.03658595 85.84609331 46.27354232 85.87717334 43.51049805 85.90820312 C42.68906815 85.91755386 41.86763824 85.9269046 41.02131653 85.9365387 C38.01402755 85.9701434 35.00750443 86 32 86 C32.97956848 84.52128601 32.97956848 84.52128601 35 83 C37.84967638 82.71938701 40.47818223 82.62114709 43.3269043 82.65942383 C44.17590302 82.65898575 45.02490173 82.65854767 45.89962769 82.65809631 C48.70805801 82.66018765 51.51589261 82.68353486 54.32421875 82.70703125 C56.27048924 82.71262598 58.21676394 82.71689666 60.16304016 82.71989441 C65.2874415 82.73135287 70.41158805 82.76082871 75.53588867 82.79400635 C81.68322738 82.83007893 87.83065125 82.84386361 93.97806549 82.86136627 C103.31888757 82.89046541 112.65915052 82.94794573 122 83 C122 56.27 122 29.54 122 2 C61.115 2.495 61.115 2.495 -1 3 C-0.67 2.01 -0.34 1.02 0 0 Z " fill="#4C4D4D" transform="translate(450,445)"/>
<path d="M0 0 C0 37.95 0 75.9 0 115 C-23.76 115 -47.52 115 -72 115 C-72 114.67 -72 114.34 -72 114 C-48.57 114 -25.14 114 -1 114 C-1 76.71 -1 39.42 -1 1 C-44.29337058 -5.11422874 -44.29337058 -5.11422874 -82.75617981 10.70332336 C-89.49227023 16.54384632 -95.6891931 22.8488068 -101.6875 29.4375 C-102.28204609 30.09025532 -102.87659218 30.74301064 -103.48915482 31.41554642 C-110.3082257 38.95473711 -116.84211293 46.69607134 -123.13578796 54.6782074 C-125 57 -125 57 -127 59 C-125.6209906 47.32476187 -111.12804702 35.0848781 -103.4375 26.6875 C-102.85915154 26.05307732 -102.28080307 25.41865463 -101.68492889 24.76500702 C-70.67334842 -8.9097215 -45.54898087 -4.71196354 0 0 Z " fill="#545454" transform="translate(574,639)"/>
<path d="M0 0 C0.99 0.33 1.98 0.66 3 1 C-16.8 20.8 -36.6 40.6 -57 61 C-57.66 60.67 -58.32 60.34 -59 60 C-58.3766124 59.37883301 -57.75322479 58.75766602 -57.11094666 58.11767578 C-51.20940916 52.23625392 -45.31033912 46.35237043 -39.41396236 40.46577454 C-36.38318588 37.44019566 -33.35149518 34.41554531 -30.31762695 31.39306641 C-27.38466096 28.47104098 -24.45421195 25.54651225 -21.52542305 22.62030029 C-20.41287344 21.50958493 -19.29945056 20.3997435 -18.18510246 19.29083252 C-12.23801797 13.37158888 -6.43531489 7.40039395 -1 1 C-0.67 0.67 -0.34 0.34 0 0 Z " fill="#DADADA" transform="translate(481,532)"/>
</svg>
